<svg width="128" height="166" viewBox="0 0 128 166" fill="none" xmlns="http://www.w3.org/2000/svg">
<path d="M124.586 4.64184C124.257 3.04375 123.297 1.72208 121.998 1.0787C120.7 0.435313 119.216 0.547611 117.999 1.38104C102.041 12.3089 82.2154 12.3096 66.2568 1.38104C64.8643 0.426674 63.1358 0.426674 61.7426 1.38104C45.7849 12.3092 25.9585 12.3092 10.0008 1.38104C8.78425 0.547611 7.30031 0.436349 6.00156 1.0787C4.70282 1.72174 3.7427 3.04375 3.41416 4.64184C-8.06474 60.4753 9.94262 118.912 49.29 153.515L61.3164 164.092C62.1103 164.791 63.0547 165.14 63.9997 165.14C64.9444 165.14 65.8894 164.79 66.6833 164.092L78.7097 153.515C118.057 118.912 136.065 60.4753 124.586 4.64184ZM73.3435 145.244L64 153.461L54.6568 145.244C19.6669 114.473 2.85768 63.3933 10.876 13.5908C27.7826 22.6224 47.4623 22.0212 64 11.7864C80.5383 22.0212 100.217 22.6227 117.124 13.5908C125.142 63.3933 108.333 114.473 73.3435 145.244Z" fill="#FF9A03"/>
<path d="M108.484 29.7137C107.811 29.1582 106.961 28.9771 106.164 29.2197C101.049 30.7696 95.7739 31.5556 90.4836 31.5556C81.8328 31.5556 73.0677 29.3858 65.1354 25.2805C64.4122 24.9065 63.5873 24.9065 62.8644 25.2805C54.9323 29.3858 46.1672 31.5556 37.5164 31.5556C32.2258 31.5556 26.95 30.7696 21.8358 29.2197C21.0374 28.9774 20.1882 29.1585 19.5156 29.7137C18.843 30.2688 18.4152 31.1416 18.3467 32.098C16.9856 51.1995 19.6483 70.6388 26.0472 88.3139C33.0454 107.645 44.3503 124.55 58.7399 137.199L62.3158 140.343C62.8141 140.781 63.407 141 64 141C64.593 141 65.1859 140.781 65.6842 140.343L69.2599 137.199C83.6497 124.549 94.9546 107.645 101.953 88.3139C108.351 70.6385 111.014 51.1995 109.653 32.098C109.585 31.1413 109.157 30.2688 108.484 29.7137ZM96.8023 85.7884C90.1858 104.065 79.4967 120.049 65.8912 132.009L63.9997 133.673L62.1079 132.01C48.5027 120.049 37.8137 104.066 31.1969 85.7887C25.5674 70.2381 22.996 53.2434 23.7027 36.406C28.2413 37.5042 32.8735 38.0597 37.5161 38.0597C46.5324 38.0597 55.6611 35.8977 63.9997 31.7966C72.3387 35.8974 81.4673 38.0597 90.4834 38.0597C95.1256 38.0597 99.7579 37.5042 104.297 36.406C105.003 53.243 102.432 70.2378 96.8023 85.7884Z" fill="#FF9900"/>
</svg>
